# xmcd CD database file
#
# Track frame offsets:
#	150
#	22134
#	48707
#	67813
#	92695
#	118191
#	146161
#
# Disc length: 2479 seconds
#
# Revision: 0
# Processed by: cddbd v1.5.2PL0 Copyright (c) Steve Scherf et al.
# Submitted via: CDex 1.70beta2
#
DISCID=6509ad07
DTITLE=Lund Quartet - Lund Quartet
DYEAR=2011
DGENRE=Jazz
TTITLE0=Sequoia
TTITLE1=Kulde
TTITLE2=Love's Madness
TTITLE3=Tulipan
TTITLE4=Lonn
TTITLE5=Merula
TTITLE6=ZIllbell
EXTD=YEAR: 2011
EXTT0=
EXTT1=
EXTT2=
EXTT3=
EXTT4=
EXTT5=
EXTT6=
PLAYORDER=
